<svg width="24" height="24" viewBox="0 0 24 24" fill="none" xmlns="http://www.w3.org/2000/svg">
<path fill-rule="evenodd" clip-rule="evenodd" d="M14.8857 9.52273C14.703 9.44218 14.557 9.29622 14.4765 9.11352L12.7327 5.15972C12.4521 4.52348 11.5494 4.52348 11.2688 5.15972L9.52508 9.11352C9.4445 9.29622 9.29852 9.44218 9.11581 9.52273L5.16048 11.2664C4.52409 11.547 4.52409 12.4499 5.16048 12.7305L9.11573 14.4742C9.29849 14.5547 9.4445 14.7007 9.52506 14.8835L11.2687 18.8393C11.5493 19.4757 12.4523 19.4757 12.7328 18.8393L14.4765 14.8835C14.557 14.7007 14.7031 14.5547 14.8858 14.4742L18.8411 12.7305C19.4774 12.4499 19.4774 11.547 18.8411 11.2664L14.8857 9.52273Z" fill="#675ECF"/>
</svg>
