<svg width="24" height="24" viewBox="0 0 24 24" fill="none" xmlns="http://www.w3.org/2000/svg">
<g opacity="0.15">
<path fill-rule="evenodd" clip-rule="evenodd" d="M14.9567 9.55403C14.7283 9.45335 14.5459 9.27089 14.4452 9.04252L12.9157 5.57465C12.565 4.77935 11.4365 4.77935 11.0858 5.57465L9.55639 9.04252C9.45567 9.27089 9.2732 9.45335 9.04481 9.55403L5.5756 11.0834C4.78012 11.4341 4.78012 12.5628 5.5756 12.9135L9.04471 14.4428C9.27315 14.5436 9.45567 14.7261 9.55637 14.9545L11.0857 18.4241C11.4364 19.2196 12.5651 19.2196 12.9158 18.4241L14.4452 14.9545C14.5459 14.7261 14.7284 14.5436 14.9568 14.4428L18.4259 12.9135C19.2214 12.5628 19.2214 11.4341 18.4259 11.0834L14.9567 9.55403Z" fill="#8C8BDB"/>
</g>
</svg>
